<svg xmlns="http://www.w3.org/2000/svg" width="128" height="132" viewBox="0 0 128 132" fill="none">
<path fill-rule="evenodd" clip-rule="evenodd" d="M82.1845 93.5732C81.5058 93.5732 80.8271 93.4624 80.0353 93.3516C77.9991 93.1299 76.1892 93.7949 74.7187 95.1248C73.2481 96.4547 72.5694 98.228 72.6825 100.223C72.9088 103.548 73.0219 106.651 73.2481 109.422C73.3612 111.749 73.2481 122.943 75.3974 123.718C79.4697 125.159 81.6189 121.169 82.4107 118.731C84.1075 113.522 89.9897 100.888 87.1617 96.4547C86.0305 94.6815 84.3337 93.6841 82.1845 93.4624V93.5732Z" fill="#5A7D2F"/>
<path fill-rule="evenodd" clip-rule="evenodd" d="M83.3143 96.1258C89.9883 97.6774 82.8618 112.75 81.7306 117.072C81.165 119.4 79.6945 121.173 78.3371 121.838C78.9027 121.062 79.3552 120.065 79.6945 118.956C80.8257 114.745 87.9522 99.6723 81.2782 98.1207C80.5995 98.1207 79.8076 98.0098 79.1289 97.899C77.8846 97.7882 76.7534 97.899 75.7354 98.564C75.9616 98.2315 76.1878 97.899 76.5272 97.6774C77.8846 96.4583 79.3551 96.015 81.165 96.1258C81.8437 96.1258 82.6356 96.2366 83.3143 96.3474V96.1258Z" fill="white"/>
<path d="M100.056 44.2533V43.9208C100.056 41.3718 101.3 38.9336 103.223 37.1603C105.146 35.3871 107.861 34.2788 110.802 34.168H111.254C114.422 34.168 117.25 35.1654 119.399 36.9387C121.548 38.7119 122.905 41.1501 122.905 43.9208V44.2533C122.905 46.8023 121.661 49.2405 119.738 51.0138C117.815 52.787 115.1 53.8953 112.159 54.0061H111.707C109.897 54.0061 108.313 53.6736 106.73 53.1195C105.372 55.1144 103.675 56.7768 101.865 58.1067C99.3768 59.88 96.7751 61.2099 94.3996 62.0965V62.6506C94.3996 62.6506 94.3996 62.8723 94.3996 62.9831C94.3996 64.4239 93.834 65.7538 93.1553 67.0837C92.5897 68.0812 91.6848 69.0786 90.7798 69.8544C92.3635 74.0659 93.2684 78.8315 93.0421 83.7079C92.7028 93.239 88.8568 101.773 82.9746 108.09C70.4185 121.278 50.0571 122.165 37.501 108.09C31.9582 101.884 28.5646 93.239 28.904 83.7079V82.9321C27.7728 82.2671 26.7547 81.4913 25.8498 80.4939C24.3793 78.8315 23.3612 76.7257 23.0218 74.3984C22.7956 73.6226 22.6825 72.9576 22.7956 72.071C22.7956 72.071 22.7956 71.9602 22.7956 71.7385C22.7956 71.7385 22.7956 70.8519 23.0218 70.4086C23.4743 67.1946 24.9448 64.2022 27.2072 62.0965C29.5827 59.6583 32.8632 58.2175 36.2567 58.2175H36.7092C37.7272 58.2175 38.7453 58.4392 39.7634 58.7717C40.2158 58.3284 40.6683 57.8851 41.1208 57.5526C41.3471 57.3309 41.4601 57.2201 41.5733 57.1093C51.4146 58.6608 61.8215 61.3207 79.468 54.6711C80.2598 54.3386 81.0516 54.0061 81.7303 53.7844C82.7484 53.452 83.7665 53.3411 84.8976 53.3411H85.3501C88.065 53.3411 90.4405 54.5602 92.0241 56.1118C92.7028 56.7768 93.1553 57.4417 93.6078 58.2175C95.5308 57.4417 97.5669 56.3335 99.4899 55.0035C101.074 53.8953 102.431 52.4545 103.562 50.7921C101.639 49.0189 100.395 46.6915 100.395 44.0316L100.056 44.2533Z" fill="#5A7D2F"/>
<path fill-rule="evenodd" clip-rule="evenodd" d="M76.7539 76.3955C76.3014 74.179 75.1702 71.7408 74.4915 69.7459C65.442 69.4134 58.768 68.0834 53.904 66.3102C47.6824 64.2045 44.2889 61.323 42.479 58.8848L42.2528 59.1064L41.4609 59.7714C42.5921 60.4363 43.7233 61.2121 44.6282 62.2096C46.6644 64.4261 47.7956 67.5293 47.6824 70.965V71.5191C47.3431 75.0656 45.7594 78.2796 43.3839 80.607C42.0265 81.9369 40.556 82.9343 38.8592 83.5993C38.8592 83.5993 36.71 84.3751 30.9409 83.9318C30.9409 84.3751 30.9409 84.8184 30.9409 85.1509C30.9409 85.9267 30.9409 86.5916 30.9409 87.3674C31.8459 87.5891 37.8411 88.6974 38.7461 88.8082C42.0265 89.3623 45.307 89.6948 48.7005 89.9165C54.6958 90.3598 60.8042 90.4706 66.7995 90.1381C68.1569 85.5942 71.6636 82.6018 74.944 80.8286C75.9621 79.4987 76.3014 77.7254 76.7539 76.1739V76.3955Z" fill="white"/>
<path fill-rule="evenodd" clip-rule="evenodd" d="M41.8016 79.3863C43.8377 77.3914 45.1951 74.6207 45.4214 71.5176V71.0743C45.4214 68.1927 44.5164 65.5329 42.8197 63.6488C42.4803 63.3163 42.2541 62.9838 41.9147 62.6514C40.4442 62.6514 39.1999 62.9838 37.9556 63.538C36.9375 63.9813 35.9194 64.6463 35.1276 65.4221C35.467 65.7545 35.6932 65.9762 35.9194 66.3087C36.9375 67.7494 37.6162 69.6335 37.5031 71.6284V71.9609C37.39 74.1774 36.2588 76.2831 34.562 77.8347C35.2407 78.4997 36.0326 79.1647 36.8244 79.608C37.8425 80.1621 38.9737 80.6054 40.1048 80.8271C40.7835 80.3838 41.3491 79.9405 41.9147 79.3863H41.8016Z" fill="white"/>
<path fill-rule="evenodd" clip-rule="evenodd" d="M27.4338 79.6069C29.0175 81.3801 31.2799 82.4884 33.8816 82.5992H34.221C35.239 82.5992 36.2571 82.3776 37.2752 82.1559C36.7096 81.9343 36.144 81.6018 35.5784 81.3801C34.4472 80.7151 33.5423 79.9394 32.6373 79.0527C31.6193 79.496 30.6012 79.8285 29.47 79.8285H29.2437C28.6781 79.8285 28.1126 79.8285 27.6601 79.6069H27.547H27.4338Z" fill="white"/>
<path fill-rule="evenodd" clip-rule="evenodd" d="M31.054 89.4707C31.959 96.2312 34.787 102.327 38.8592 106.981C40.2166 108.533 41.8003 109.974 43.4971 111.193H43.3839C44.8545 112.19 47.0037 113.188 49.7186 114.629C52.7728 115.848 56.1663 116.513 59.5599 116.513C61.1435 115.958 63.519 114.185 65.7814 112.19C67.7044 110.417 69.5143 108.422 70.6455 106.871C66.0076 105.43 64.6502 99.556 66.0076 92.9063V92.3522C61.7091 92.5739 57.1844 92.5739 52.7728 92.3522C51.3022 92.3522 49.8317 92.2414 48.3612 92.1306C42.0265 91.6873 37.0493 90.9115 30.9409 89.5815L31.054 89.4707Z" fill="white"/>
<path fill-rule="evenodd" clip-rule="evenodd" d="M72.1185 108.316C70.8742 109.868 69.1774 111.752 67.3675 113.414C66.3495 114.412 65.2183 115.298 64.2002 116.074C70.7611 115.077 76.6433 111.752 81.2811 106.986C86.4846 101.556 90.1044 94.0196 90.7831 85.8184C90.4437 86.04 90.2175 86.1508 89.8781 86.3725C89.1994 86.705 88.5207 87.1483 87.842 87.4808C88.1813 89.254 88.1813 91.1381 87.7289 93.133C86.2583 100.226 80.6024 106.1 74.7202 106.986C73.9284 107.43 73.1366 107.873 72.3447 108.316H72.1185Z" fill="white"/>
<path fill-rule="evenodd" clip-rule="evenodd" d="M81.1682 79.4987C83.9962 80.3853 86.1454 82.491 87.1635 85.4834C87.7291 85.2617 88.1815 84.9292 88.634 84.7076C89.4258 84.2643 90.1046 83.7101 90.7833 83.2668C90.7833 77.393 89.539 71.9624 87.0504 67.1968C85.4667 64.0937 83.3175 61.2121 80.7158 58.8848C81.2813 64.2045 77.8878 67.751 76.4172 69.0809C77.3222 71.4083 78.0009 73.9573 78.4534 76.6172C79.1321 77.7254 80.037 78.7229 81.0551 79.6095L81.1682 79.4987Z" fill="white"/>
<path fill-rule="evenodd" clip-rule="evenodd" d="M83.7676 59.1062C85.8037 61.2119 87.5005 63.6501 88.8579 66.31C89.1973 66.8641 89.4235 67.4183 89.7629 67.9724C90.3285 67.4183 90.7809 66.8641 91.1203 66.1992C91.6859 65.2017 92.0252 64.0934 92.1384 62.9852V62.6527C92.1384 60.6578 91.4597 58.8845 90.1022 57.5546C89.876 57.333 89.6498 57.1113 89.3104 56.8896C88.1792 56.8896 87.048 57.2221 86.1431 57.5546C85.2382 57.8871 84.4463 58.4412 83.7676 58.9954V59.1062Z" fill="white"/>
<path fill-rule="evenodd" clip-rule="evenodd" d="M82.4123 57.6672C83.3172 56.8914 84.3353 56.3373 85.4665 55.894C85.6927 55.894 85.9189 55.6723 86.2583 55.5615C85.8058 55.5615 85.3534 55.4507 84.9009 55.3398H84.5615C83.6566 55.3398 82.7516 55.4507 81.9598 55.6723C81.6204 55.6723 81.168 55.894 80.8286 56.0048C81.3942 56.4481 81.8467 56.8914 82.4123 57.4456V57.6672Z" fill="white"/>
<path fill-rule="evenodd" clip-rule="evenodd" d="M33.3185 64.316C34.3366 63.3185 35.5809 62.4319 37.0515 61.7669C37.7302 61.4344 38.522 61.2128 39.2007 60.9911C38.2958 60.6587 37.2777 60.437 36.1465 60.3262H35.8072C32.9792 60.3262 30.3775 61.5453 28.3413 63.5402L28.002 63.9835H28.1151L28.2282 64.2051C29.02 63.8727 29.925 63.7618 30.8299 63.7618H31.0562C31.9611 63.7618 32.6398 63.9835 33.3185 64.316Z" fill="white"/>
<path fill-rule="evenodd" clip-rule="evenodd" d="M102.091 44.1467C102.091 46.3633 103.222 48.3582 104.919 49.7989C106.616 51.2397 108.991 52.1263 111.593 52.1263H111.932C114.421 52.0155 116.57 51.1289 118.154 49.6881C119.738 48.2474 120.643 46.3633 120.756 44.3684V44.0359C120.756 42.1519 119.851 40.3786 118.493 38.9379C118.041 39.6028 117.362 40.157 116.457 40.4894C115.1 41.1544 113.29 41.4869 111.48 41.3761C109.67 41.2652 108.2 40.6003 107.068 39.7136C106.277 39.1595 105.711 38.4945 105.485 37.7188C105.145 37.9404 104.806 38.1621 104.58 38.3837C102.996 39.8245 102.091 41.7085 101.978 43.7034V44.0359L102.091 44.1467Z" fill="white"/>
<path fill-rule="evenodd" clip-rule="evenodd" d="M64.0862 116.073C69.4027 115.186 74.3799 112.859 78.5653 109.423C75.398 111.75 72.2307 113.302 69.4028 113.523C68.8372 113.523 68.9503 112.304 70.0814 110.642C68.6109 112.083 65.783 114.853 64.0862 116.073Z" fill="#CFCFCF"/>
<path fill-rule="evenodd" clip-rule="evenodd" d="M80.7149 60.7723C83.3167 63.6538 88.407 70.6359 89.5382 82.4945C89.5382 83.0486 89.5382 83.6027 89.6513 84.1569C89.9906 83.8244 90.33 83.6027 90.6693 83.3811C90.6693 77.5072 89.4251 72.0767 86.9365 67.3111C85.3528 64.2079 83.2035 61.3264 80.6018 58.999C80.6018 59.664 80.6018 60.2181 80.6018 60.8831L80.7149 60.7723Z" fill="white"/>
<path fill-rule="evenodd" clip-rule="evenodd" d="M89.7623 86.3725C89.7623 86.3725 88.518 95.682 86.595 99.561C88.7442 95.4604 90.2148 90.8056 90.6672 85.8184C90.3279 86.04 90.1017 86.1508 89.7623 86.3725Z" fill="white"/>
<path fill-rule="evenodd" clip-rule="evenodd" d="M107.182 39.822C106.39 39.2679 105.825 38.6029 105.598 37.8271C105.259 38.0488 104.92 38.2705 104.694 38.4921C103.11 39.9329 102.205 41.8169 102.092 43.8118V44.1443C102.092 46.3609 103.223 48.3558 104.92 49.7965C105.485 50.2398 106.051 50.6831 106.73 51.0156C101.074 43.036 107.182 39.9329 107.182 39.822Z" fill="#CFCFCF"/>
<path fill-rule="evenodd" clip-rule="evenodd" d="M118.608 39.0493C118.608 39.0493 117.929 39.8251 117.477 40.1576C118.947 41.9308 119.965 44.9232 118.608 49.4671C119.965 48.1372 120.87 46.3639 120.87 44.369V44.0365C120.87 42.1525 119.965 40.3792 118.608 38.9385V39.0493Z" fill="white"/>
<path fill-rule="evenodd" clip-rule="evenodd" d="M83.7676 59.1079C86.2562 61.7677 88.2923 64.8709 89.7629 68.0849C90.6678 67.1983 90.7809 67.0874 91.2334 65.9792C89.876 63.3193 86.2562 59.1078 84.7856 58.5537C84.4463 58.5537 84.107 58.997 83.8807 59.2187L83.7676 59.1079Z" fill="#CFCFCF"/>
<path fill-rule="evenodd" clip-rule="evenodd" d="M83.3173 57.0043C81.9599 56.2285 81.7336 56.1177 81.2812 56.0068C80.9418 56.0068 81.0549 56.0068 80.7156 56.2285C81.2812 56.6718 81.7336 57.1151 82.2992 57.6692C82.7517 57.3368 82.7517 57.3368 83.2042 57.0043H83.3173Z" fill="#CFCFCF"/>
<path fill-rule="evenodd" clip-rule="evenodd" d="M75.0602 77.1739C75.0602 80.8312 67.0288 82.4937 65.6714 89.365C61.3729 90.2516 46.6675 89.9191 46.6675 89.9191C53.4546 90.5841 60.1286 90.6949 66.8026 90.2516C67.7075 86.3726 71.3273 82.937 74.9471 80.9421C76.3045 80.1663 76.9832 78.1714 76.757 76.2873C76.3045 74.0708 75.1733 71.6326 74.4946 69.6377C74.0421 69.6377 71.4404 69.416 70.988 69.416C74.4946 70.6351 75.2865 73.0733 75.0602 77.0631V77.1739Z" fill="white"/>
<path fill-rule="evenodd" clip-rule="evenodd" d="M35.9194 60.4336C35.9194 60.4336 35.0145 60.4336 34.562 60.4336C35.8063 60.4336 36.9375 60.8769 37.6162 61.431C38.1818 61.2094 38.6343 61.0985 39.1999 60.8769C38.2949 60.5444 37.2768 60.3227 36.1457 60.2119H35.8063L35.9194 60.4336Z" fill="white"/>
<path fill-rule="evenodd" clip-rule="evenodd" d="M39.6521 62.9839C45.4211 66.9736 44.1768 77.0589 37.616 80.1621C38.4078 80.4946 39.0865 80.7162 39.9914 80.8271C40.6702 80.3838 41.2357 79.9405 41.8013 79.3863C43.8375 77.3914 45.1949 74.6207 45.4211 71.5176V71.0743C45.4211 68.1927 44.5162 65.5329 42.8194 63.6488C42.4801 63.3163 42.2538 62.9838 41.9145 62.6514C41.1227 62.6514 40.4439 62.7622 39.6521 62.9839Z" fill="#CFCFCF"/>
<path fill-rule="evenodd" clip-rule="evenodd" d="M35.4673 81.3838C35.4673 81.3838 35.241 81.1621 35.1279 81.1621C34.223 81.7162 32.5262 82.0487 30.377 81.8271C31.395 82.2704 32.6393 82.6029 33.8836 82.7137H34.223C35.241 82.7137 36.2591 82.492 37.2772 82.2704C36.7116 82.0487 36.146 81.7162 35.5804 81.4946L35.4673 81.3838Z" fill="white"/>
<path d="M54.358 64.5358C53.2268 64.6466 52.0956 64.7574 50.9644 64.7574C45.0823 64.9791 39.5394 63.8708 34.5622 61.5434C32.8655 61.5434 31.0556 61.2109 29.3588 60.4351C27.2095 59.4377 25.1734 57.8861 23.5897 55.6695C23.0241 55.0046 22.5717 54.3396 22.1192 53.5638C22.1192 53.5638 22.1192 53.453 22.0061 53.2313C22.0061 53.2313 21.6667 52.3447 21.4405 51.9014C20.4224 49.6849 19.9699 47.4683 19.9699 45.2518C17.5945 38.1588 18.3863 30.2901 21.7798 23.4187C25.0603 16.5474 30.9425 10.3411 38.8607 6.35131C47.5709 1.91821 57.0728 0.920761 65.4436 2.80483C73.8143 4.79972 81.1671 9.67614 85.1262 17.2124C89.1985 24.7487 89.3116 33.2824 86.1443 41.1511C79.6965 53.1205 77.2079 58.9944 54.358 64.5358Z" fill="#5A7D2F"/>
<path fill-rule="evenodd" clip-rule="evenodd" d="M75.1701 47.6883C69.6273 50.5698 63.5189 51.1239 58.0892 49.794C53.112 48.5749 48.7003 45.6934 45.8724 41.3711C45.3068 41.5927 44.8543 41.8144 44.2887 42.1469L42.7051 42.8119C44.2887 46.2475 44.7412 49.9048 44.0625 53.008C43.61 55.557 42.3657 57.6627 40.6689 59.2143C42.0264 59.9901 43.2707 60.6551 44.7412 61.0984C56.1662 65.5315 69.8535 58.5494 77.0931 51.1239C77.0931 50.1265 77.0931 49.129 77.0931 48.1316C77.0931 47.6883 77.0931 47.2449 77.0931 46.6908C76.5275 47.0233 75.8488 47.4666 75.1701 47.7991V47.6883Z" fill="white"/>
<path fill-rule="evenodd" clip-rule="evenodd" d="M42.0274 52.2321C42.593 49.4614 42.1406 46.1366 40.67 43.0334L40.4438 42.5901C38.8601 39.7086 36.5978 37.6028 34.2223 36.4946C33.7698 36.2729 33.3173 36.1621 32.8648 35.9404C31.7336 36.6054 30.8287 37.492 30.0369 38.4895C29.4713 39.3761 29.0188 40.4844 28.6794 41.5926C29.0188 41.7035 29.4713 41.9251 29.8107 42.1468C31.5074 43.0334 32.9779 44.6958 34.1091 46.5799L34.3354 46.9123C35.3534 49.0181 35.6928 51.2346 35.2403 53.2295C35.2403 53.4512 35.2403 53.6728 35.1272 53.8945C36.0321 54.227 37.0502 54.5595 38.0683 54.6703C39.1995 54.6703 40.3307 54.6703 41.4618 54.3378C41.8012 53.6728 42.0274 52.897 42.1405 52.2321H42.0274Z" fill="white"/>
<path fill-rule="evenodd" clip-rule="evenodd" d="M37.9552 56.7816C36.7109 56.6708 35.4667 56.3383 34.2224 55.7842C33.6568 56.6708 32.8649 57.3358 31.96 57.7791H31.7337C31.7337 57.7791 30.8288 58.2224 30.2632 58.3332V58.5549C32.5256 59.5523 35.1273 59.6631 37.2766 58.6657H37.5028C38.4077 58.1116 39.0864 57.5574 39.7651 56.7816C39.1995 56.7816 38.5209 56.7816 37.8421 56.7816H37.9552Z" fill="white"/>
<path fill-rule="evenodd" clip-rule="evenodd" d="M26.6435 41.2626C26.9828 39.8218 27.5485 38.4919 28.3403 37.2728C28.7928 36.6078 29.2452 36.0537 29.8108 35.6104C28.7928 35.6104 27.8878 35.832 26.9829 36.2753H26.7566C24.3811 37.6052 22.9106 39.9326 22.345 42.7033V43.2574H22.5712C23.0237 42.7033 23.7024 42.1492 24.3811 41.8167H24.6073C25.2861 41.3734 26.0779 41.2626 26.7566 41.2626H26.6435Z" fill="white"/>
<path fill-rule="evenodd" clip-rule="evenodd" d="M22.1144 37.4937C21.5488 34.723 21.4357 31.9523 21.6619 29.1816C20.6438 32.8389 20.3045 36.4963 20.7569 40.1536C21.0963 39.1561 21.5488 38.2695 22.1144 37.4937Z" fill="white"/>
<path fill-rule="evenodd" clip-rule="evenodd" d="M23.7007 29.4031C23.4745 31.5088 23.5876 33.6145 23.8138 35.6094C24.3794 35.1661 24.945 34.7228 25.5106 34.5011H25.85C28.6779 33.0604 31.8452 33.282 34.7863 34.5011C37.388 35.7202 39.7635 37.8259 41.5734 40.7075C42.139 40.4858 42.7046 40.2642 43.2702 40.0425L44.7408 39.3775C42.3653 34.5011 42.3652 29.0706 44.1751 24.1942C45.8719 19.7611 49.0392 15.7713 53.4508 13.0006C54.2427 10.3407 54.582 7.68087 48.2474 5.13184C45.4194 5.7968 42.5915 6.90508 39.7635 8.23501C30.9403 12.7789 24.4925 18.6528 23.7007 29.4031Z" fill="white"/>
<path fill-rule="evenodd" clip-rule="evenodd" d="M55.0356 4.02637C56.5062 6.68623 59.6735 8.90278 63.067 9.34609C66.3475 8.79195 69.741 8.90278 72.7952 9.67857C74.9445 10.2327 76.9806 11.1193 78.9036 12.2276C75.1707 8.57029 70.4198 6.13209 65.1032 4.91299C61.9359 4.13719 58.4292 3.91554 55.0356 4.13719V4.02637Z" fill="white"/>
<path fill-rule="evenodd" clip-rule="evenodd" d="M84.3312 39.5996C82.8607 41.7053 81.1639 43.7002 79.0146 45.3626C79.0146 46.3601 79.0146 47.3575 79.0146 48.355V48.6875C81.1639 46.0276 82.8607 43.1461 83.9918 40.1537L84.2181 39.5996H84.3312Z" fill="white"/>
<path fill-rule="evenodd" clip-rule="evenodd" d="M26.641 36.3886C25.0574 37.2752 23.8131 38.6051 23.0212 40.1567C24.3787 38.6051 26.8673 36.6102 28.4509 36.9427C29.0165 36.2777 28.9034 36.1669 29.6952 35.502C28.6772 35.502 27.7722 35.7236 26.8673 36.1669H26.641V36.3886Z" fill="#CFCFCF"/>
<path fill-rule="evenodd" clip-rule="evenodd" d="M39.6527 54.6703C40.2183 54.6703 40.7838 54.5594 41.3494 54.3378C41.6888 53.6728 41.915 52.897 42.0281 52.2321C42.5937 49.4614 42.1413 46.1366 40.6707 43.0334L40.4445 42.5901C38.8608 39.7086 36.5985 37.6028 34.223 36.4946C33.7705 36.2729 33.318 36.1621 32.8655 35.9404C32.0737 36.3837 31.9606 36.4946 31.395 37.0487C36.3722 37.3812 43.2724 45.4716 39.7658 54.5594L39.6527 54.6703Z" fill="#CFCFCF"/>
<path fill-rule="evenodd" clip-rule="evenodd" d="M38.0712 56.7822C36.1482 58.4446 33.5465 58.8879 31.7366 58.9988C33.6596 59.5529 35.5826 59.4421 37.3925 58.6663H37.6187C38.5237 58.1122 39.2024 57.558 39.8811 56.7822C39.3155 56.7822 38.7499 56.7822 38.1843 56.7822H38.0712Z" fill="#CFCFCF"/>
<path fill-rule="evenodd" clip-rule="evenodd" d="M77.0924 48.4668C69.061 56.5572 51.0752 62.3202 43.6094 54.3407C42.9307 56.2247 41.9126 57.8871 40.5552 59.1062C52.8851 66.7533 68.3823 59.7712 76.9793 51.0158C76.9793 50.1292 76.9793 49.3534 76.9793 48.4668H77.0924Z" fill="white"/>
<path fill-rule="evenodd" clip-rule="evenodd" d="M22.1169 43.261H22.23L22.4563 43.3718C22.9088 42.7069 23.5875 42.1527 24.2662 41.8202H24.4924C25.1711 41.3769 25.9629 41.2661 26.6417 41.2661C26.6417 40.8228 26.8679 40.3795 26.981 40.047C25.3974 39.7145 22.5694 41.2661 22.1169 43.261Z" fill="white"/>
<path fill-rule="evenodd" clip-rule="evenodd" d="M29.8107 42.2625C33.5436 44.3683 36.0321 49.2447 35.1272 53.3453C35.1272 53.567 35.1272 53.7886 35.0141 54.0103C35.5797 54.2319 36.1453 54.4536 36.7108 54.5644C38.6339 49.4663 33.3173 41.8192 28.9057 40.9326C28.6794 41.4868 28.9057 41.2651 28.6794 41.8192C29.0188 41.9301 29.4713 42.1517 29.8107 42.3734V42.2625Z" fill="white"/>
<path fill-rule="evenodd" clip-rule="evenodd" d="M34.2224 55.7842C33.6568 56.6708 32.8649 57.3358 31.96 57.7791H31.7337C31.7337 57.7791 30.8288 58.2224 30.2632 58.3332V58.5549C32.1862 58.444 34.3354 58.2224 35.6929 56.3383C35.1273 56.1167 34.6748 56.0058 34.1092 55.7842H34.2224Z" fill="white"/>
<path fill-rule="evenodd" clip-rule="evenodd" d="M29.1319 33.5037C19.9693 23.3075 39.6519 4.35604 51.19 6.57259C50.3982 5.90763 50.1719 5.90763 48.2489 5.13184C35.8059 7.57004 20.4217 18.4311 23.8153 35.7202C25.6252 34.0578 28.1138 33.7253 29.1319 33.6145V33.5037Z" fill="white"/>
<path fill-rule="evenodd" clip-rule="evenodd" d="M22.1144 37.4937C21.5488 34.723 21.4357 31.9523 21.6619 29.1816C20.6438 32.8389 20.3045 36.4963 20.7569 40.1536C21.0963 39.1561 21.5488 38.2695 22.1144 37.4937Z" fill="white"/>
<path fill-rule="evenodd" clip-rule="evenodd" d="M56.1662 5.68969C60.3516 5.35721 69.6273 5.68969 78.7899 12.2285C75.057 8.57121 70.306 6.133 64.9894 4.9139C61.8221 4.13811 58.3154 3.91645 54.9219 4.13811C55.2612 4.69224 55.6006 5.24638 56.1662 5.80052V5.68969Z" fill="white"/>
<path fill-rule="evenodd" clip-rule="evenodd" d="M74.2644 18.6553C75.2824 18.1012 76.8661 18.8769 77.6579 20.3177C78.4498 21.7585 78.2235 23.4209 77.2055 23.975C76.1874 24.5291 74.6037 23.7534 73.8119 22.3126C73.0201 20.8718 73.2463 19.2094 74.2644 18.6553ZM54.3555 27.7431C55.5998 27.0782 57.4097 27.9648 58.3147 29.738C59.2196 31.5113 58.9934 33.3954 57.7491 34.0603C56.5048 34.7253 54.6949 33.8387 53.7899 32.0654C52.885 30.2922 53.1112 28.4081 54.3555 27.7431Z" fill="white"/>
<path d="M11.5984 87.3662C14.7657 87.3662 17.4805 88.5853 19.5167 90.5802C21.5528 92.5751 22.7971 95.3458 22.7971 98.3381C22.7971 101.33 21.5528 104.101 19.5167 106.096C17.4805 108.091 14.6526 109.31 11.5984 109.31C8.54421 109.31 5.71624 108.091 3.6801 106.096C1.64397 104.101 0.399658 101.33 0.399658 98.3381C0.399658 95.3458 1.64397 92.5751 3.6801 90.5802C4.58505 89.6936 5.48998 89.0286 6.62117 88.4745C9.22289 80.1624 16.1231 76.3943 24.4939 71.8504C25.7382 71.1854 27.0956 70.4096 28.2268 69.8555L30.2629 73.2911C28.7924 74.0669 27.6612 74.7319 26.53 75.3968C19.9692 78.9433 14.3133 82.0465 11.5984 87.477V87.3662Z" fill="#5A7D2F"/>
<path fill-rule="evenodd" clip-rule="evenodd" d="M11.4835 90.9131C15.8951 90.9131 19.4018 94.3487 19.4018 98.671C19.4018 99.4468 19.4018 100.223 19.0624 100.888C17.5919 100.555 16.0082 100.333 14.4246 100.333C10.5786 100.333 7.18501 101.331 4.92264 102.993C4.01769 101.774 3.56519 100.223 3.56519 98.671C3.56519 94.3487 7.07187 90.9131 11.4835 90.9131Z" fill="white"/>
<path fill-rule="evenodd" clip-rule="evenodd" d="M38.7452 83.7112C38.7452 83.7112 36.5959 84.487 30.8269 84.0437C30.8269 85.152 30.8269 86.3711 30.8269 87.4794C31.1663 87.4794 31.6187 87.701 32.0712 87.701C33.0893 87.9227 37.1616 88.5877 38.4059 88.8093C36.596 86.2603 45.0799 84.9303 48.3603 77.7266C50.3964 73.0718 50.0571 68.1954 48.9259 64.7597C47.9078 64.7597 47.0028 64.7597 45.9848 64.5381C47.0028 66.4222 47.5685 68.6387 47.4553 70.9661V71.5202C47.116 75.0667 45.5323 78.2807 43.1568 80.6081C41.7994 81.938 40.3289 82.9354 38.6321 83.6004L38.7452 83.7112Z" fill="#CFCFCF"/>
<path fill-rule="evenodd" clip-rule="evenodd" d="M6.61939 101.995C4.80949 99.9998 4.35704 97.0074 5.48822 93.6826C4.35704 95.0125 3.56519 96.7858 3.56519 98.6699C3.56519 100.221 4.01769 101.773 4.92264 102.992C5.37511 102.66 5.94068 102.327 6.61939 101.995Z" fill="#CFCFCF"/>
<path fill-rule="evenodd" clip-rule="evenodd" d="M13.8625 91.2432C16.9167 93.0164 18.2742 97.0062 16.8037 100.442C17.5955 100.442 18.3873 100.664 19.066 100.885C19.2923 100.22 19.4054 99.4444 19.4054 98.6686C19.4054 95.1221 17.0299 92.2406 13.8625 91.2432Z" fill="white"/>
<path fill-rule="evenodd" clip-rule="evenodd" d="M38.7467 90.9115C36.2581 90.579 33.7695 90.0248 31.0547 89.4707C31.9596 96.2312 34.7876 102.327 38.8599 106.981C40.2173 108.533 41.801 109.974 43.4977 111.193H43.3846C44.8551 112.19 47.0044 113.188 49.7193 114.629C52.7735 115.848 56.167 116.513 59.5605 116.513C60.8049 116.069 62.6148 114.961 64.3115 113.409C42.9322 110.528 39.5386 96.342 38.6336 91.0223L38.7467 90.9115Z" fill="#CFCFCF"/>
<path fill-rule="evenodd" clip-rule="evenodd" d="M46.7766 100.887C47.4553 101.108 48.134 101.219 48.8127 101.441C50.7357 101.995 52.2062 103.214 53.1112 104.987C54.0161 106.761 54.0161 108.645 53.1112 110.529C51.7538 113.632 50.5095 116.403 49.3783 118.952C48.4733 121.057 44.5142 131.586 42.2518 131.586C37.9533 131.586 37.2746 127.042 37.3877 124.493C37.6139 119.062 36.5959 105.098 40.8944 101.995C42.5912 100.776 44.6273 100.443 46.5503 100.887H46.7766Z" fill="#5A7D2F"/>
<path fill-rule="evenodd" clip-rule="evenodd" d="M40.1052 128.262C41.1233 129.703 42.5938 129.814 43.4988 127.597C45.0824 124.051 46.6661 120.504 48.1366 117.069C49.3809 114.298 49.494 114.076 50.7383 111.195C51.4171 109.643 51.4171 107.981 50.7383 106.429C50.1728 105.21 49.2678 104.324 48.1366 103.77C48.5891 104.213 48.9284 104.767 49.2678 105.321C50.0596 106.873 50.0596 108.535 49.2678 110.087C48.0235 112.857 47.9104 113.19 46.6661 115.961C45.0824 119.507 43.4988 122.943 42.0282 126.489C41.4626 127.708 40.7839 128.262 40.1052 128.152V128.262Z" fill="white"/>
<path d="M124.226 16.1923C126.867 13.1909 127.948 10.3095 126.747 8.38863C125.306 5.9875 121.465 6.10756 118.703 6.70784C118.583 6.22761 118.343 5.74739 118.223 5.26716C119.063 4.42677 119.063 3.10615 118.223 2.26575C117.863 1.90558 117.263 1.66547 116.782 1.66547C116.542 1.66547 116.302 1.66547 116.062 1.78553C115.222 0.94513 114.261 0.584961 113.301 0.584961C111.02 0.584961 109.099 2.98609 107.778 6.70784C105.017 6.10756 101.175 5.9875 99.7343 8.38863C98.6538 10.3095 99.7343 13.3109 102.256 16.1923C101.655 16.9126 101.055 17.633 100.575 18.3533C100.575 18.3533 100.455 18.3533 100.335 18.3533C99.134 18.3533 98.1736 19.3138 98.1736 20.5143C98.1736 21.2347 98.5338 21.955 99.1341 22.3152C99.1341 22.9155 99.2541 23.5157 99.6142 24.116C101.055 26.5171 104.897 26.3971 107.658 25.7968C108.859 29.5186 110.9 31.9197 113.181 31.9197C115.462 31.9197 117.383 29.5186 118.703 25.7968C120.264 26.157 121.705 26.277 123.145 26.0369C123.506 26.5171 124.106 26.8773 124.826 26.8773C126.027 26.8773 126.987 25.9169 126.987 24.7163C126.987 24.4762 126.987 24.2361 126.867 23.996C127.948 22.0751 126.867 19.1937 124.346 16.1923H124.226ZM113.301 22.4352C111.38 21.5948 109.579 20.5143 107.898 19.3138C107.778 17.2728 107.778 15.2318 107.898 13.1909C109.579 11.9903 111.38 11.0299 113.301 10.0694C115.222 10.9098 117.022 11.9903 118.703 13.1909C118.943 15.2318 118.823 17.3929 118.703 19.3138C117.022 20.5143 115.222 21.4748 113.301 22.4352ZM118.343 21.1146C118.223 22.0751 117.983 23.0355 117.743 24.116C116.782 23.8759 115.822 23.5157 114.861 23.1556C116.062 22.5553 117.143 21.8349 118.343 21.1146ZM111.5 23.1556C110.539 23.5157 109.579 23.8759 108.618 24.116C108.378 23.1556 108.138 22.1951 108.018 21.1146C109.099 21.8349 110.299 22.5553 111.5 23.1556ZM106.458 18.2333C105.617 17.633 104.897 16.9126 104.176 16.3124C104.897 15.592 105.617 14.9917 106.458 14.2714C106.458 15.592 106.458 16.9126 106.458 18.2333ZM108.138 11.27C108.258 10.3095 108.498 9.34908 108.739 8.38863C109.699 8.62874 110.659 8.98891 111.62 9.34908C110.419 9.94936 109.339 10.5496 108.138 11.27ZM114.982 9.34908C115.942 8.98891 116.902 8.62874 117.863 8.38863C118.103 9.34908 118.343 10.3095 118.463 11.27C117.383 10.5496 116.182 9.8293 114.982 9.34908ZM120.144 14.2714C120.984 14.8717 121.705 15.592 122.425 16.3124C121.705 17.0327 120.984 17.633 120.144 18.2333C120.144 16.9126 120.144 15.592 120.144 14.2714ZM125.546 9.10897C126.267 10.4296 125.546 12.7107 123.265 15.2318C122.305 14.2714 121.104 13.3109 119.904 12.3505C119.784 10.7898 119.424 9.34908 119.063 8.02846C121.104 7.66829 124.466 7.30812 125.546 9.10897ZM113.301 2.02564C113.301 2.02564 114.381 2.26575 114.982 2.74598C114.741 3.10615 114.741 3.46631 114.741 3.82648C114.741 5.02705 115.702 5.9875 116.902 5.9875C116.902 5.9875 117.022 5.9875 117.143 5.9875C117.263 6.34767 117.503 6.70784 117.623 7.18806C116.302 7.54823 114.861 8.02846 113.541 8.62874C112.1 8.02846 110.78 7.54823 109.459 7.18806C110.539 4.0666 112.1 2.14569 113.541 2.14569L113.301 2.02564ZM100.935 9.10897C101.895 7.30812 105.377 7.66829 107.418 8.02846C107.058 9.34908 106.818 10.7898 106.578 12.3505C105.257 13.3109 104.176 14.2714 103.216 15.2318C101.055 12.7107 100.215 10.4296 100.935 9.10897ZM100.935 23.3957C100.935 23.3957 100.695 22.9155 100.695 22.5553C101.655 22.4352 102.496 21.5948 102.496 20.5143C102.496 19.914 102.256 19.4338 101.895 19.0736C102.256 18.4734 102.736 17.8731 103.216 17.2728C104.176 18.2333 105.257 19.1937 106.578 20.1542C106.698 21.7149 107.058 23.1556 107.418 24.4762C105.377 24.8364 102.015 25.1965 100.935 23.3957ZM113.301 30.479C111.74 30.479 110.179 28.5581 109.099 25.4366C110.419 25.0765 111.86 24.5962 113.301 23.996C114.741 24.5962 116.062 25.0765 117.503 25.4366C116.422 28.6782 114.861 30.479 113.301 30.479ZM119.183 24.4762C119.544 23.1556 119.784 21.7149 120.024 20.1542C121.224 19.1937 122.425 18.2333 123.385 17.2728C125.306 19.5539 126.267 21.5948 125.907 22.9155C125.667 22.7954 125.306 22.6753 124.946 22.6753C123.866 22.6753 122.905 23.5157 122.905 24.7163C121.705 24.7163 120.504 24.7163 119.304 24.4762H119.183Z" fill="white"/>
<path d="M113.299 13.1885C111.618 13.1885 110.298 14.5091 110.298 16.1899C110.298 17.8707 111.618 19.1913 113.299 19.1913C114.98 19.1913 116.3 17.8707 116.3 16.1899C116.3 14.5091 114.98 13.1885 113.299 13.1885Z" fill="white"/>
</svg>
